<?xml version="1.0" encoding="utf-8"?>
<!-- Generator: Adobe Illustrator 24.0.1, SVG Export Plug-In . SVG Version: 6.00 Build 0)  -->
<svg version="1.1" id="Слой_1" xmlns="http://www.w3.org/2000/svg" xmlns:xlink="http://www.w3.org/1999/xlink" x="0px" y="0px"
	 viewBox="0 0 106 96" style="enable-background:new 0 0 106 96;" xml:space="preserve">
<style type="text/css">
	.st0{fill:#FFFFFF;}
</style>
<g>
	<path class="st0" d="M22.38,36.04c0-4.46,4.55-5.39,8-5.39c4.13,0,7.93,1.69,8.01,5.74h14.42c0.24-12.82-11.3-19.31-22.69-19.31
		c-12.05,0-22.92,6.5-22.92,19.31c0,12.31,10.79,16.6,21.58,17.27c4.31,0.26,10.87,0.51,10.87,6.15c0,3.55-4.64,5.57-9.01,5.57
		c-4.72,0-9.36-2.02-9.36-6.07H6.61C6.35,72.54,18.33,78.78,30.8,78.78c0.89,0,1.79-0.04,2.67-0.11l1.43-3.05l2.61-5.53L48.7,46.31
		c-4.37-3.08-10.62-4.2-17.31-4.78C25.74,40.94,22.38,40.01,22.38,36.04z"/>
</g>
<g>
	<path class="st0" d="M77.99,17.22h-7.3L55.75,48.94L42.79,76.46v2.18h16.6l3.47-7.56h22.75l3.57,7.56h16.42v-2.18L77.99,17.22z
		 M67.99,57.78l6.25-14.68l6.35,14.68H67.99z"/>
</g>
</svg>
