<?xml version="1.0" encoding="utf-8"?>
<!-- Generator: Adobe Illustrator 24.0.1, SVG Export Plug-In . SVG Version: 6.00 Build 0)  -->
<svg version="1.1" id="Слой_1" xmlns="http://www.w3.org/2000/svg" xmlns:xlink="http://www.w3.org/1999/xlink" x="0px" y="0px"
	 viewBox="0 0 106 96" style="enable-background:new 0 0 106 96;" xml:space="preserve">
<style type="text/css">
	.st0{fill:#FFFFFF;}
</style>
<g>
	<path class="st0" d="M22.38,36.04c0-4.46,4.55-5.39,8-5.39c3.7,0,7.12,1.35,7.86,4.53c0.17,0.72,0.84,1.21,1.58,1.21h11.3
		c0.95,0,1.71-0.81,1.65-1.76c-0.8-11.65-11.79-17.55-22.65-17.55c-12.05,0-22.92,6.5-22.92,19.31c0,12.31,10.79,16.6,21.58,17.27
		c4.31,0.26,10.87,0.51,10.87,6.15c0,3.55-4.64,5.57-9.01,5.57c-4.25,0-8.42-1.63-9.22-4.9c-0.17-0.7-0.85-1.16-1.57-1.16H8.3
		c-0.95,0-1.71,0.8-1.65,1.74C7.43,73.09,18.89,78.78,30.8,78.78c0.57,0,1.13-0.01,1.7-0.04c0.6-0.03,1.13-0.4,1.39-0.95l1.02-2.16
		l2.61-5.53l10.57-22.48c0.36-0.77,0.08-1.7-0.66-2.13c-4.27-2.47-9.97-3.43-16.03-3.97C25.74,40.94,22.38,40.01,22.38,36.04z"/>
</g>
<g>
	<path class="st0" d="M76.85,17.22h-5.04c-0.69,0-1.32,0.4-1.61,1.02l-14.45,30.7L42.96,76.1c-0.11,0.24-0.17,0.5-0.17,0.76v0
		c0,0.98,0.8,1.78,1.78,1.78h13.68c0.7,0,1.33-0.4,1.62-1.04l2.52-5.49c0.29-0.63,0.92-1.04,1.62-1.04h20.48
		c0.69,0,1.31,0.4,1.61,1.02l2.61,5.52c0.29,0.62,0.92,1.02,1.61,1.02h13.51c0.98,0,1.78-0.8,1.78-1.78v0
		c0-0.26-0.06-0.52-0.17-0.75L78.46,18.25C78.17,17.62,77.54,17.22,76.85,17.22z M69.05,55.3l3.57-8.39
		c0.61-1.44,2.65-1.44,3.27-0.01l3.63,8.39c0.51,1.17-0.35,2.49-1.63,2.49h-7.2C69.41,57.78,68.55,56.48,69.05,55.3z"/>
</g>
</svg>
