<svg width="34" height="21" viewBox="0 0 34 21" fill="none" xmlns="http://www.w3.org/2000/svg">
<path d="M5.29884 6.38556C5.29884 4.88347 6.83124 4.57025 7.99317 4.57025C9.23929 4.57025 10.3911 5.02492 10.6403 6.09592C10.6976 6.33841 10.9232 6.50343 11.1725 6.50343H14.9782C15.2982 6.50343 15.5541 6.23063 15.5339 5.91068C15.2645 1.98707 11.5632 0 7.9056 0C3.84727 0 0.186354 2.18914 0.186354 6.50343C0.186354 10.6493 3.82033 12.0942 7.4543 12.3198C8.90587 12.4074 11.1152 12.4916 11.1152 14.3911C11.1152 15.5867 9.55251 16.267 8.08073 16.267C6.64937 16.267 5.24495 15.718 4.97552 14.6167C4.91827 14.381 4.68925 14.226 4.44676 14.226H0.556825C0.236873 14.226 -0.0190879 14.4955 0.00111956 14.8121C0.263816 18.8637 4.12344 20.78 8.13462 20.78C8.32659 20.78 8.51519 20.7766 8.70717 20.7665C8.90924 20.7564 9.08774 20.6318 9.1753 20.4466L9.51883 19.7191L10.3979 17.8567L13.9577 10.2856C14.079 10.0263 13.9847 9.71305 13.7355 9.56823C12.2974 8.73636 10.3776 8.41304 8.33669 8.23117C6.43046 8.03583 5.29884 7.72262 5.29884 6.38556Z" fill="white"/>
<path d="M23.6438 0.0471573H21.9464C21.714 0.0471573 21.5018 0.181874 21.4042 0.390684L16.5375 10.7302L12.23 19.8774C12.1929 19.9582 12.1727 20.0458 12.1727 20.1334C12.1727 20.4634 12.4422 20.7329 12.7722 20.7329H17.3795C17.6153 20.7329 17.8274 20.5981 17.9251 20.3826L18.7738 18.5336C18.8715 18.3214 19.0837 18.1833 19.3194 18.1833H26.2169C26.4493 18.1833 26.6581 18.3181 26.7591 18.5269L27.6382 20.386C27.7358 20.5948 27.948 20.7295 28.1804 20.7295H32.7304C33.0605 20.7295 33.3299 20.4601 33.3299 20.13C33.3299 20.0424 33.3097 19.9549 33.2727 19.8774L24.1861 0.394052C24.0884 0.181874 23.8762 0.0471573 23.6438 0.0471573ZM21.0169 12.8722L22.2192 10.0465C22.4246 9.5615 23.1117 9.5615 23.3205 10.0431L24.5431 12.8688C24.7148 13.2628 24.4252 13.7074 23.9941 13.7074H21.5692C21.1381 13.7074 20.8485 13.2696 21.0169 12.8722Z" fill="white"/>
</svg>
